<svg xmlns="http://www.w3.org/2000/svg" width="640" height="480" viewBox="0 0 640 480" role="img" aria-label="Crop placeholder">
  <defs>
    <linearGradient id="bg" x1="0" y1="0" x2="1" y2="1">
      <stop offset="0%" stop-color="#ecfdf5"/>
      <stop offset="55%" stop-color="#f0fdf4"/>
      <stop offset="100%" stop-color="#e2e8f0"/>
    </linearGradient>
  </defs>
  <rect width="640" height="480" fill="url(#bg)"/>
  <circle cx="320" cy="210" r="64" fill="#d1fae5"/>
  <path d="M320 168c18 28 18 56 0 84-18-28-18-56 0-84z" fill="#059669" opacity="0.85"/>
  <path d="M292 220c24-8 48-8 56 12-20 8-40 6-56-12z" fill="#10b981" opacity="0.7"/>
  <path d="M348 220c-24-8-48-8-56 12 20 8 40 6 56-12z" fill="#34d399" opacity="0.7"/>
  <rect x="316" y="248" width="8" height="36" rx="4" fill="#047857"/>
  <text x="320" y="330" text-anchor="middle" font-family="Segoe UI, Arial, sans-serif" font-size="22" font-weight="700" fill="#334155">Crop photo</text>
  <text x="320" y="358" text-anchor="middle" font-family="Segoe UI, Arial, sans-serif" font-size="14" fill="#64748b">Coming soon</text>
</svg>
